HIERARCHY
ROOT Hips
{
 OFFSET 0.000000 0.000000 0.000000
 CHANNELS 6 Xposition Yposition Zposition Yrotation Xrotation Zrotation
 JOINT Chest
 {
  OFFSET 0.000000 9.585900 0.002600
  CHANNELS 3 Yrotation Xrotation Zrotation
  JOINT Chest2
  {
   OFFSET 0.000000 9.601200 -0.005300
   CHANNELS 3 Yrotation Xrotation Zrotation
   JOINT Chest3
   {
    OFFSET 0.000000 9.561800 0.000000
    CHANNELS 3 Yrotation Xrotation Zrotation
    JOINT Chest4
    {
     OFFSET 0.000000 9.552100 0.000000
     CHANNELS 3 Yrotation Xrotation Zrotation
     JOINT Neck
     {
      OFFSET 0.000000 14.453000 0.000000
      CHANNELS 3 Yrotation Xrotation Zrotation
      JOINT Head
      {
       OFFSET 0.000000 8.936500 -0.011300
       CHANNELS 3 Yrotation Xrotation Zrotation
       End Site
       {
        OFFSET 0.000000 17.073600 -0.006000
       }
      }
     }
     JOINT RightCollar
     {
      OFFSET -2.921100 9.558500 0.000000
      CHANNELS 3 Yrotation Xrotation Zrotation
      JOINT RightShoulder
      {
       OFFSET -13.519700 0.000000 0.000000
       CHANNELS 3 Yrotation Xrotation Zrotation
       JOINT RightElbow
       {
        OFFSET 0.000000 -29.696600 0.000000
        CHANNELS 3 Yrotation Xrotation Zrotation
        JOINT RightWrist
        {
         OFFSET 0.000000 -24.004700 0.000000
         CHANNELS 3 Yrotation Xrotation Zrotation
         End Site
         {
          OFFSET 0.000000 -17.728500 0.000000
         }
        }
       }
      }
     }
     JOINT LeftCollar
     {
      OFFSET 2.921100 9.558500 0.000000
      CHANNELS 3 Yrotation Xrotation Zrotation
      JOINT LeftShoulder
      {
       OFFSET 13.519700 0.000000 0.000000
       CHANNELS 3 Yrotation Xrotation Zrotation
       JOINT LeftElbow
       {
        OFFSET 0.000000 -29.696600 0.000000
        CHANNELS 3 Yrotation Xrotation Zrotation
        JOINT LeftWrist
        {
         OFFSET 0.000000 -24.004700 0.000000
         CHANNELS 3 Yrotation Xrotation Zrotation
         End Site
         {
          OFFSET 0.000000 -17.728500 0.000000
         }
        }
       }
      }
     }
    }
   }
  }
 }
 JOINT RightHip
 {
  OFFSET -7.771700 -0.012900 -0.001300
  CHANNELS 3 Yrotation Xrotation Zrotation
  JOINT RightKnee
  {
   OFFSET 0.000000 -40.869800 0.001200
   CHANNELS 3 Yrotation Xrotation Zrotation
   JOINT RightAnkle
   {
    OFFSET 0.000000 -39.717900 0.002100
    CHANNELS 3 Yrotation Xrotation Zrotation
    JOINT RightToe
    {
     OFFSET 0.000000 -4.965400 11.033500
     CHANNELS 3 Yrotation Xrotation Zrotation
     End Site
     {
      OFFSET 0.000000 -1.423100 5.872300
     }
    }
   }
  }
 }
 JOINT LeftHip
 {
  OFFSET 7.771700 -0.012900 -0.001300
  CHANNELS 3 Yrotation Xrotation Zrotation
  JOINT LeftKnee
  {
   OFFSET 0.000000 -40.869800 0.001200
   CHANNELS 3 Yrotation Xrotation Zrotation
   JOINT LeftAnkle
   {
    OFFSET 0.000000 -39.717900 0.002100
    CHANNELS 3 Yrotation Xrotation Zrotation
    JOINT LeftToe
    {
     OFFSET 0.000000 -4.965400 11.033500
     CHANNELS 3 Yrotation Xrotation Zrotation
     End Site
     {
      OFFSET 0.000000 -1.423100 5.872300
     }
    }
   }
  }
 }
}
MOTION
Frames: 12
Frame Time: 0.008333
0.000000 85.388000 0.000000 0.000000 -5.767877 0.000000 0.000000 11.653817 0.000000 0.000000 -5.885947 0.000000 0.000000 -0.000000 0.000000 0.000000 -0.000000 0.000000 0.000000 12.528835 0.000000 0.000000 0.711642 0.000000 0.000000 -0.000000 0.000000 0.000000 0.000000 -90.000000 0.000000 -2.309062 0.000000 0.000000 2.309062 0.000000 0.000000 -0.000000 0.000000 0.000000 -0.000000 90.000000 0.000000 -2.309062 0.000000 0.000000 2.309062 0.000000 0.000000 8.520406 0.000000 0.000000 1.905762 0.000000 -0.000000 -4.658285 0.000000 0.000000 -0.000000 0.000000 0.000000 8.520406 0.000000 0.000000 1.905762 0.000000 -0.000000 -4.658285 0.000000 0.000000 -0.000000 0.000000
-161.766284 55.817111 107.183267 -172.957926 -25.796838 -11.540897 -0.774602 11.634386 6.451337 -0.788358 6.762231 2.095461 -0.948846 8.513010 2.607077 -0.789704 6.816296 2.093517 -6.209173 23.885753 -1.782893 -6.374816 0.236744 -0.525097 2.112509 0.703263 -3.446449 -14.271901 -16.108280 2.124666 -102.309127 -57.156397 140.573026 5.238711 -15.327213 -8.781893 -9.091257 3.672109 -2.845051 0.635320 -1.876563 -2.734818 -83.998491 -68.867729 86.804614 1.598246 -15.211603 -0.363530 -23.699254 -37.043439 11.284691 41.148647 84.673466 37.062184 -0.176259 -19.963858 -1.158129 -1.168871 2.769212 -0.531359 -17.303710 -51.205119 13.705057 177.414601 80.495782 172.285417 -2.369416 -17.763187 3.442321 -0.102613 -0.542518 -0.053087
-161.763839 55.815780 107.179481 -172.962627 -25.784215 -11.538749 -0.765458 11.649871 6.452531 -0.793971 6.767042 2.095141 -0.947979 8.499750 2.607917 -0.789247 6.842192 2.091807 -6.118026 23.653857 -1.760304 -6.272975 -0.050313 -0.518900 2.087131 0.724681 -3.456757 -14.212436 -16.059676 2.079837 -103.574070 -57.896315 141.517034 5.467945 -15.087766 -9.110144 -9.102541 3.665901 -2.835880 0.647341 -1.860685 -2.708431 -84.115137 -68.884810 86.937833 1.619303 -15.257278 -0.351148 -23.700875 -37.057129 11.295785 41.177960 84.681757 37.093605 -0.179498 -19.966582 -1.159227 -1.172807 2.765623 -0.531135 -17.323037 -51.215278 13.717772 177.387397 80.489802 172.253630 -2.366570 -17.769740 3.439033 -0.102456 -0.540352 -0.054740
-161.760548 55.813534 107.176484 -172.962863 -25.759394 -11.539701 -0.760101 11.657142 6.455405 -0.794581 6.767790 2.095686 -0.948883 8.505621 2.608057 -0.791627 6.839308 2.091916 -6.021867 23.425734 -1.741564 -6.164778 -0.350652 -0.515002 2.058508 0.757520 -3.466667 -14.158065 -15.998307 2.038990 -105.024818 -58.703202 142.621443 5.731018 -14.764524 -9.466048 -9.120973 3.687255 -2.830449 0.663501 -1.864941 -2.678631 -84.239451 -68.893387 87.083881 1.641646 -15.335675 -0.336781 -23.712927 -37.080800 11.313598 41.229289 84.689625 37.145139 -0.170829 -19.971022 -1.164638 -1.172566 2.764015 -0.529409 -17.362430 -51.237398 13.742167 177.368022 80.482478 172.227886 -2.361786 -17.774310 3.434551 -0.102363 -0.538357 -0.057698
-161.756981 55.811147 107.172880 -172.961382 -25.734734 -11.540763 -0.753762 11.667397 6.457996 -0.799583 6.770346 2.095650 -0.950186 8.512825 2.607671 -0.786669 6.854700 2.093055 -5.920108 23.174559 -1.720438 -6.050829 -0.659284 -0.512816 2.044429 0.725628 -3.470681 -14.129694 -15.881567 1.982657 -106.661395 -59.558796 143.897862 6.007611 -14.351871 -9.837822 -9.150306 3.703339 -2.822254 0.687155 -1.888233 -2.646805 -84.363233 -68.891160 87.230465 1.681061 -15.351100 -0.345384 -23.726906 -37.104001 11.330397 41.279852 84.697002 37.196172 -0.162183 -19.975440 -1.166792 -1.177709 2.762029 -0.531890 -17.385867 -51.261387 13.755919 177.367641 80.475576 172.229044 -2.357484 -17.780203 3.429613 -0.102276 -0.536257 -0.056957
-161.757009 55.808417 107.168162 -172.925774 -25.711105 -11.533695 -0.787573 11.667678 6.436331 -0.790166 6.819258 2.095842 -0.947906 8.544292 2.610991 -0.789600 6.838618 2.096491 -5.812045 22.911061 -1.696815 -5.930633 -0.963270 -0.512422 2.003254 0.723757 -3.481438 -14.103392 -15.801255 1.939674 -108.425952 -60.438492 145.306052 6.285699 -13.878266 -10.195595 -9.179169 3.689244 -2.812226 0.707402 -1.904622 -2.614418 -84.486281 -68.915749 87.368706 1.685524 -15.399935 -0.341478 -23.755175 -37.133242 11.320706 41.335665 84.724088 37.255265 -0.178471 -19.976552 -1.173334 -1.160270 2.746323 -0.522333 -17.417749 -51.284628 13.736166 177.349602 80.472847 172.203640 -2.355262 -17.780552 3.427396 -0.102510 -0.534060 -0.055627
-161.753289 55.805667 107.164389 -172.918228 -25.686574 -11.535127 -0.783092 11.689793 6.441918 -0.791134 6.832796 2.097677 -0.948963 8.561144 2.613144 -0.791664 6.796630 2.095044 -5.697946 22.711928 -1.676343 -5.802318 -1.254673 -0.513144 1.966107 0.775026 -3.489504 -14.095985 -15.715976 1.888738 -110.242064 -61.322048 146.775757 6.568585 -13.402476 -10.495627 -9.209991 3.726090 -2.812098 0.729582 -1.927026 -2.582695 -84.606862 -68.903500 87.517865 1.719186 -15.434409 -0.332472 -23.772369 -37.156262 11.335471 41.341740 84.737300 37.263767 -0.174676 -19.982176 -1.173329 -1.163658 2.748506 -0.525473 -17.454455 -51.306974 13.753758 177.349298 80.466335 172.198332 -2.350351 -17.787229 3.421186 -0.108229 -0.530245 -0.051859
-161.749643 55.802981 107.160491 -172.915816 -25.667184 -11.533472 -0.777600 11.717820 6.448285 -0.791861 6.835756 2.097849 -0.952096 8.543121 2.611675 -0.794198 6.860906 2.101112 -5.573300 22.463873 -1.652648 -5.664691 -1.534580 -0.515051 1.950398 0.730227 -3.505570 -14.111843 -15.590290 1.825583 -112.055588 -62.197808 148.251363 6.866737 -12.973809 -10.707896 -9.220561 3.665255 -2.807115 0.741427 -1.914660 -2.553145 -84.711670 -68.896277 87.646809 1.747044 -15.463843 -0.310907 -23.782139 -37.176182 11.344839 41.362153 84.749874 37.287467 -0.164929 -19.989045 -1.172970 -1.170661 2.750158 -0.530633 -17.494713 -51.324600 13.776380 177.351334 80.458047 172.189538 -2.349965 -17.787973 3.419252 -0.106751 -0.533358 -0.055022
-161.746852 55.800569 107.156152 -172.908196 -25.655096 -11.529495 -0.785736 11.725735 6.444071 -0.791957 6.829957 2.097085 -0.958355 8.612278 2.619528 -0.796485 6.876840 2.103000 -5.437579 22.221746 -1.629979 -5.517264 -1.805499 -0.519049 1.957423 0.650663 -3.522858 -14.144117 -15.428195 1.753694 -113.833460 -63.063352 149.698295 7.190109 -12.609506 -10.838898 -9.224196 3.601984 -2.805914 0.756991 -1.900887 -2.525367 -84.815786 -68.901066 87.770287 1.767043 -15.506077 -0.266079 -23.786070 -37.190223 11.343957 41.410938 84.761903 37.340383 -0.161712 -19.999332 -1.173528 -1.169543 2.753749 -0.532042 -17.515407 -51.336570 13.774864 177.356512 80.451782 172.193120 -2.344704 -17.790951 3.415132 -0.103429 -0.534600 -0.058628
-161.744413 55.798665 107.151488 -172.900283 -25.651678 -11.524802 -0.793640 11.741522 6.438582 -0.794215 6.860812 2.101177 -0.967652 8.641276 2.622958 -0.798033 6.872720 2.102189 -5.294113 22.007078 -1.609105 -5.359460 -2.067219 -0.527241 1.936349 0.648749 -3.540219 -14.148251 -15.317705 1.701140 -115.587587 -63.923606 151.124623 7.539239 -12.291855 -10.928198 -9.276662 3.631766 -2.823358 0.819068 -1.957555 -2.491507 -84.932092 -68.918143 87.901374 1.687011 -15.513685 -0.190349 -23.779155 -37.199326 11.341893 41.450922 84.776630 37.384048 -0.173963 -20.001672 -1.171541 -1.161595 2.747481 -0.527285 -17.530248 -51.339680 13.771801 177.352052 80.445850 172.182974 -2.345516 -17.792036 3.415697 -0.103686 -0.536850 -0.059636
-161.741184 55.796655 107.148579 -172.899188 -25.644852 -11.522446 -0.797150 11.770302 6.440640 -0.805640 6.914311 2.108260 -0.965581 8.607914 2.618847 -0.802974 6.882973 2.103449 -5.141970 21.798174 -1.592323 -5.191659 -2.321577 -0.542013 1.886843 0.706538 -3.560626 -14.117548 -15.256206 1.667365 -117.377396 -64.792221 152.585991 7.897051 -11.987253 -11.026189 -9.303826 3.622194 -2.841273 0.859727 -1.977831 -2.467496 -84.974636 -68.897963 87.970359 1.712207 -15.526680 -0.195100 -23.777071 -37.208547 11.345830 41.485501 84.785926 37.422174 -0.176198 -20.007619 -1.169206 -1.163691 2.749564 -0.529870 -17.547644 -51.345740 13.782033 177.358878 80.440570 172.182567 -2.347231 -17.794180 3.418128 -0.104029 -0.537182 -0.060584
-161.739021 55.794055 107.148321 -172.894900 -25.627840 -11.515628 -0.805234 11.786930 6.436618 -0.812751 6.919344 2.111520 -0.971995 8.619713 2.619910 -0.808214 6.892367 2.104320 -4.982936 21.587148 -1.579021 -5.015962 -2.577658 -0.562193 1.857717 0.721161 -3.576486 -14.092527 -15.143917 1.621947 -119.270043 -65.686251 154.149058 8.249696 -11.662058 -11.171865 -9.299134 3.581585 -2.852426 0.874907 -1.984318 -2.458969 -84.839157 -68.855677 87.848394 1.730880 -15.569018 -0.188586 -23.775195 -37.232585 11.345620 41.473279 84.799869 37.416310 -0.170214 -20.008519 -1.171166 -1.169552 2.748608 -0.528237 -17.565195 -51.363621 13.784054 177.343637 80.439264 172.163305 -2.350314 -17.795897 3.416846 -0.103107 -0.533724 -0.059859
